<!-- Generator: Adobe Illustrator 17.1.0, SVG Export Plug-In  --><svg version="1.1"	 xmlns="http://www.w3.org/2000/svg" xmlns:xlink="http://www.w3.org/1999/xlink" xmlns:a="http://ns.adobe.com/AdobeSVGViewerExtensions/3.0/"	 x="0px" y="0px" width="422.1px" height="278.9px" viewBox="0 0 422.1 278.9" enable-background="new 0 0 422.1 278.9"	 xml:space="preserve"><defs></defs><path fill="none" stroke="#355D2D" stroke-width="0.25" stroke-miterlimit="10" d="M40.8,139.6c6.2-13.3,12.6-26.9,23-37.3	S89.4,85,103.6,88.6c22.8,5.6,35.5,34.7,59,36.3c13,0.9,24.7-7.3,34.7-15.7c15.5-13,30.1-27.5,47.8-37.4s39.7-14.6,58.3-6.7	c16.2,6.9,27.1,21.9,40.2,33.6c21.2,18.7,51.1,29,78.4,21.9"/><path fill="none" stroke="#355D2D" stroke-width="0.25" stroke-miterlimit="10" d="M216.5,0.1c-9.2,0.1-18,4.6-24.8,10.8	c-6.8,6.2-11.9,14-16.6,22c-5.8,9.9-11.3,21.7-7.4,32.4c5.3,14.8,25.6,20.4,29.9,35.5c2.2,7.8-0.5,16.1-3.7,23.6	c-6.1,14.4-13.8,29.1-12.6,44.7c1.2,14.5,10,27.2,13.9,41.3c5.7,20.8-0.6,44.3-15.9,59.5"/><path fill="none" stroke="#355D2D" stroke-width="0.25" stroke-miterlimit="10" d="M2.8,35.7C15.2,24,33.1,18.2,50.1,20.5	s32.7,12.6,41.6,27.2c16.6,27.2,8.3,62.3,15.1,93.4c1.7,7.7,5.3,16.3,12.9,18.5c6.7,1.9,13.5-2,18.9-6.4	c11.4-9.5,19.9-21.9,30.5-32.3c10.6-10.4,24.4-19.1,39.2-17.9c16.7,1.4,29.6,14.6,41.6,26.2c13.3,12.8,27.8,24.8,44.4,32.9	c16.6,8.1,35.7,12.2,53.9,8.7"/><path fill="none" stroke="#355D2D" stroke-width="0.25" stroke-miterlimit="10" d="M85.4,22.5c15.7,2.4,28.8,13.8,37.1,27.4	s12.2,29.2,15.7,44.7c1.9,8.4,4.8,18.1,12.9,21.2c7,2.7,14.7-1,21.6-4.1c14.5-6.5,31.5-10.4,46.1-4.2c16.8,7.2,25.5,25.2,34.3,41.2	c9.6,17.3,21.1,33.9,36.1,46.8c15,12.9,33.9,21.9,53.7,22.6"/><path fill="none" stroke="#355D2D" stroke-width="0.25" stroke-miterlimit="10" d="M327,24.6c-23.8-11.5-53.4-7.7-75.9,6.2	s-38.4,36.9-47.8,61.6c-6.4,16.8-9.5,37.3,1.3,51.7c4.6,6.1,11.5,10.7,14.2,17.9c3.4,8.9-0.8,18.8-6,26.8	c-15.3,23.1-40,39.1-66.5,47s-55,8.2-82.4,4.4"/><path fill="none" stroke="#355D2D" stroke-width="0.25" stroke-miterlimit="10" d="M121.9,6.3c-1.3,15.5-2.7,31.3,1,46.5	c3.7,15.2,13.1,30.1,28.5,37.5c10.5,5.1,22.7,6.3,34.4,8.6c19.9,4,40,12.3,50.9,27.6c8.6,12,10.4,27.2,7.4,41.2	c-3,14-10.5,26.9-19.6,38.7c-22,28.6-52.7,50.7-83,72.4"/><path fill="none" stroke="#355D2D" stroke-width="0.25" stroke-miterlimit="10" d="M329.3,130.7c-22.5-24.1-54.8-39.5-87.8-38.7	s-65.6,19.1-81,48.2c-8.8,16.7-12,36-21.6,52.2c-13.3,22.4-38.1,36.6-63.9,39.9s-52.3-3.7-74.9-16.5"/><path fill="none" stroke="#355D2D" stroke-width="0.25" stroke-miterlimit="10" d="M38.1,197.1c0-26.8,15.6-51.1,33.2-71.3	c14.9-17.2,32.4-33.2,53.9-40.5c21.5-7.3,47.9-4.1,63.2,12.7c11.2,12.3,15.4,30.2,27.9,41.2c13.1,11.5,32.5,12.7,49.5,9.1	s33-11.1,49.9-15.3c16.9-4.2,36.1-4.5,50.4,5.4c17.9,12.4,22.7,36.4,26.1,57.9"/></svg>