<!-- Generator: Adobe Illustrator 17.1.0, SVG Export Plug-In  --><svg version="1.1"	 xmlns="http://www.w3.org/2000/svg" xmlns:xlink="http://www.w3.org/1999/xlink" xmlns:a="http://ns.adobe.com/AdobeSVGViewerExtensions/3.0/"	 x="0px" y="0px" width="708.9px" height="468.7px" viewBox="0 0 708.9 468.7" enable-background="new 0 0 708.9 468.7"	 xml:space="preserve"><defs></defs><path fill="none" stroke="#008A60" stroke-miterlimit="10" d="M68.7,234.6c10.4-22.3,21.2-45.1,38.6-62.6s42.9-29,66.8-23	c38.2,9.5,59.7,58.2,99,60.9c21.8,1.5,41.5-12.3,58.3-26.3c26.1-21.8,50.6-46.1,80.3-62.7s66.6-24.5,97.9-11.2	c27.1,11.6,45.4,36.8,67.6,56.4c35.6,31.4,85.8,48.7,131.7,36.8"/><path fill="none" stroke="#008A60" stroke-miterlimit="10" d="M363.7,0.5c-15.5,0.2-30.2,7.8-41.6,18.2	c-11.4,10.4-20,23.6-27.9,36.9c-9.8,16.6-18.9,36.3-12.4,54.5c8.9,24.8,43,34.2,50.2,59.6c3.7,13.1-0.9,27-6.2,39.5	c-10.2,24.2-23.2,48.8-21.2,75c1.9,24.4,16.8,45.7,23.3,69.3c9.5,34.8-1,74.4-26.7,99.9"/><path fill="none" stroke="#008A60" stroke-miterlimit="10" d="M4.8,60.3c20.9-19.7,51-29.4,79.5-25.6s54.9,21.1,69.9,45.6	c27.8,45.6,14,104.6,25.3,156.8c2.8,13,9,27.4,21.7,31c11.2,3.2,22.7-3.4,31.7-10.8c19.1-15.9,33.4-36.8,51.2-54.2s41-32,65.8-30	c28,2.3,49.6,24.5,69.9,44c22.4,21.6,46.7,41.6,74.6,55.2s59.9,20.4,90.4,14.7"/><path fill="none" stroke="#008A60" stroke-miterlimit="10" d="M143.5,38.1c26.3,4,48.4,23.2,62.2,46s20.4,49.1,26.4,75	c3.2,14.1,8.1,30.4,21.6,35.6c11.8,4.5,24.7-1.7,36.2-6.8c24.4-10.9,52.9-17.5,77.5-7c28.1,12,42.7,42.3,57.6,69.1	c16.1,29.1,35.4,56.9,60.6,78.5c25.3,21.6,57,36.8,90.2,37.9"/><path fill="none" stroke="#008A60" stroke-miterlimit="10" d="M549,41.6c-40-19.4-89.6-13-127.4,10.4s-64.5,61.9-80.3,103.5	c-10.7,28.3-16,62.6,2.2,86.7c7.7,10.3,19.3,18,23.9,30c5.7,14.9-1.4,31.6-10.1,45c-25.6,38.9-67.1,65.7-111.7,79	s-92.3,13.8-138.4,7.5"/><path fill="none" stroke="#008A60" stroke-miterlimit="10" d="M204.8,10.8c-2.2,26.1-4.5,52.5,1.7,78.1s22,50.5,47.9,63	c17.6,8.5,38.2,10.5,57.7,14.4c33.4,6.7,67.1,20.6,85.4,46.4c14.4,20.2,17.5,45.6,12.5,69.1s-17.7,45.2-32.9,64.9	c-36.9,47.9-88.5,85.1-139.3,121.6"/><path fill="none" stroke="#008A60" stroke-miterlimit="10" d="M553,219.7c-37.7-40.5-92-66.4-147.3-64.9	c-55.3,1.5-110.1,32.1-136,80.9c-14.8,28-20.2,60.4-36.3,87.6c-22.3,37.6-64,61.5-107.4,66.9S38.3,384,0.2,362.6"/><path fill="none" stroke="#008A60" stroke-miterlimit="10" d="M64.2,331.3c0-45,26.2-85.8,55.8-119.8c25-28.8,54.3-55.7,90.5-68	c36.1-12.3,80.4-6.9,106.1,21.3c18.8,20.7,25.8,50.7,46.9,69.1c22,19.3,54.6,21.3,83.2,15.3c28.6-6,55.4-18.7,83.8-25.7	c28.4-7,60.5-7.6,84.6,9.1c30.1,20.9,38.1,61,43.8,97.2"/></svg>